<svg id="baseline-phone-24px" xmlns="http://www.w3.org/2000/svg" width="24" height="24" viewBox="0 0 24 24">
  <path id="Path_867" data-name="Path 867" d="M0,0H24V24H0Z" fill="none"/>
  <path id="Path_868" data-name="Path 868" d="M6.057,9.578a12.792,12.792,0,0,0,5.565,5.565l1.858-1.858a.84.84,0,0,1,.861-.2,9.633,9.633,0,0,0,3.015.481.847.847,0,0,1,.844.844v2.947a.847.847,0,0,1-.844.844A14.354,14.354,0,0,1,3,3.844.847.847,0,0,1,3.844,3H6.8a.847.847,0,0,1,.844.844,9.593,9.593,0,0,0,.481,3.015.847.847,0,0,1-.211.861Z" transform="translate(1.4 1.4)" fill="#4d4f5c"/>
</svg>
