<svg id="emoji_events-24px" xmlns="http://www.w3.org/2000/svg" xmlns:xlink="http://www.w3.org/1999/xlink" width="24" height="24" viewBox="0 0 24 24">
  <defs>
    <clipPath id="clip-path">
      <rect id="Rectangle_7804" data-name="Rectangle 7804" width="21.817" height="21.828" fill="#4d4f5c"/>
    </clipPath>
  </defs>
  <g id="Bounding_Box">
    <rect id="Rectangle_340" data-name="Rectangle 340" width="24" height="24" fill="none"/>
  </g>
  <g id="Group_9301" data-name="Group 9301" transform="translate(0.601 1)">
    <g id="Group_9300" data-name="Group 9300" clip-path="url(#clip-path)">
      <path id="Path_24018" data-name="Path 24018" d="M23.389,2.75a.627.627,0,0,0-.535-.548,13.068,13.068,0,0,0-4.572-.029,13.243,13.243,0,0,0-6.931,3.432.338.338,0,0,1-.263.1,9.366,9.366,0,0,0-1.116.035,9.006,9.006,0,0,0-4.557,1.75A20.28,20.28,0,0,0,3.294,9.472.64.64,0,0,0,3.475,10.6c.952.477,1.9.957,2.858,1.426.151.074.187.122.1.285A22.5,22.5,0,0,0,5.5,14.442a.676.676,0,0,0,.018.644c.044.071.036.11-.028.155s-.11.087-.164.132A9.03,9.03,0,0,0,2.161,20.69a4.8,4.8,0,0,1-.16.874v.211a.055.055,0,0,1,0,.084v.169a.323.323,0,0,1,0,.253v.844a.533.533,0,0,0,.464.464h1.1a.072.072,0,0,1,.087-.037h.084c.035-.005.071-.013.082.035h.127c.011-.047.049-.038.083-.041a8.907,8.907,0,0,0,3.238-.921,9.1,9.1,0,0,0,3.038-2.46c.046-.058.07-.184.205-.1a.669.669,0,0,0,.644.019c.719-.28,1.429-.578,2.117-.928.15-.076.218-.083.3.1.462.952.943,1.9,1.417,2.841a.648.648,0,0,0,1.151.181c.349-.347.7-.694,1.044-1.044a9,9,0,0,0,2.707-6.719.381.381,0,0,1,.114-.3,10.887,10.887,0,0,0,1.047-1.266,13.274,13.274,0,0,0,2.34-10.2M4.755,9.821A8.015,8.015,0,0,1,10,7c-.077.09-.127.151-.179.211a23.144,23.144,0,0,0-2.59,3.623c-.079.138-.142.159-.288.084-.722-.372-1.45-.73-2.185-1.1m4.678,9.4a7.75,7.75,0,0,1-5.525,3.066c-.063.006-.126.015-.189.02s-.126.008-.157.01c-.3.011-.306.01-.289-.261a7.784,7.784,0,0,1,3.083-5.889c.1-.079.151-.074.237.016.272.285.549.565.836.835.112.105.1.161-.006.26-.409.4-.81.8-1.209,1.207a.631.631,0,0,0,.359,1.076.643.643,0,0,0,.568-.213c.4-.4.8-.792,1.191-1.2.091-.094.139-.095.229,0,.282.295.572.582.865.865.08.077.072.124.008.205m6.337,1.614c-.38-.758-.756-1.514-1.138-2.268-.071-.139.047-.153.115-.193A23.934,23.934,0,0,0,17.623,16.4c.316-.253.624-.516.963-.8a8.005,8.005,0,0,1-2.817,5.232M21.522,9.477a12.756,12.756,0,0,1-3.3,4.743,23.132,23.132,0,0,1-7.035,4.5.273.273,0,0,1-.357-.078q-.669-.687-1.357-1.356c-.11-.107-.117-.158,0-.271q1.484-1.468,2.954-2.95a.637.637,0,1,0-.9-.891c-.965.963-1.932,1.924-2.889,2.9-.15.152-.225.164-.378,0-.44-.464-.9-.91-1.353-1.36a.181.181,0,0,1-.058-.233A22.185,22.185,0,0,1,12.62,6.169a11.381,11.381,0,0,1,3.619-2.143A.767.767,0,0,1,16.333,4a6.482,6.482,0,0,0,.691,1.952A6.415,6.415,0,0,0,21.368,9.2c.179.041.23.078.154.273m.489-1.593c-.031.133-.081.154-.2.128a5.192,5.192,0,0,1-4.155-3.889c-.145-.509-.128-.511.4-.62a12.86,12.86,0,0,1,2.656-.251c.3,0,.8.048,1.3.095.151.014.209.079.226.227a12.3,12.3,0,0,1-.231,4.309" transform="translate(-1.888 -1.874)" fill="#4d4f5c"/>
      <path id="Path_24019" data-name="Path 24019" d="M2.143,21.828h-.3l-.009-.035H1.762l-.018.037-1.188,0A.647.647,0,0,1,0,21.271l0-.02v-.866l.008-.02a.209.209,0,0,0,0-.168L0,20.176v-.508l.008-.02a2.03,2.03,0,0,0,.108-.53c.012-.106.025-.216.046-.324a9.182,9.182,0,0,1,3.2-5.381L3.4,13.38c.042-.035.085-.072.132-.105l0,0a.8.8,0,0,1-.028-.745,22.877,22.877,0,0,1,.942-2.146A.254.254,0,0,0,4.48,10.3a.319.319,0,0,0-.085-.051c-.759-.372-1.527-.758-2.27-1.131l-.589-.3a.836.836,0,0,1-.5-.594.828.828,0,0,1,.285-.711c.167-.164.334-.334.5-.5a13.967,13.967,0,0,1,1.639-1.5A9.16,9.16,0,0,1,8.074,3.749,9.482,9.482,0,0,1,9.2,3.714a.228.228,0,0,0,.183-.065A13.408,13.408,0,0,1,16.375.188a13.231,13.231,0,0,1,4.611.029.742.742,0,0,1,.626.64,13.439,13.439,0,0,1-2.359,10.286A11.049,11.049,0,0,1,18.2,12.423a.271.271,0,0,0-.082.217,9.147,9.147,0,0,1-2.74,6.8c-.325.33-.659.662-.982.983l-.063.062a.858.858,0,0,1-.735.3.846.846,0,0,1-.6-.509l-.328-.651c-.361-.716-.734-1.457-1.09-2.191-.035-.072-.054-.082-.054-.083a.3.3,0,0,0-.1.039,23.053,23.053,0,0,1-2.127.932.788.788,0,0,1-.746-.03l-.007,0-.011.019a.428.428,0,0,1-.037.057,9.256,9.256,0,0,1-3.075,2.491,9.06,9.06,0,0,1-3.272.932ZM1.986,21.6h.008a.188.188,0,0,1,.122-.04h.011a8.838,8.838,0,0,0,3.2-.909,9.033,9.033,0,0,0,3-2.43.3.3,0,0,0,.018-.028.245.245,0,0,1,.15-.135.237.237,0,0,1,.186.043.551.551,0,0,0,.542.009,22.849,22.849,0,0,0,2.106-.923.284.284,0,0,1,.457.146c.356.733.728,1.473,1.089,2.188l.328.652a.634.634,0,0,0,.43.388.647.647,0,0,0,.54-.237l.063-.062c.322-.321.656-.652.981-.981a8.928,8.928,0,0,0,2.675-6.637.5.5,0,0,1,.145-.378,10.826,10.826,0,0,0,1.036-1.253A13.221,13.221,0,0,0,21.39.895a.515.515,0,0,0-.444-.455A13.009,13.009,0,0,0,16.414.41a13.185,13.185,0,0,0-6.874,3.4A.451.451,0,0,1,9.2,3.94a9.22,9.22,0,0,0-1.1.034A8.938,8.938,0,0,0,3.595,5.7,13.788,13.788,0,0,0,1.983,7.177c-.162.165-.33.336-.5.5a.612.612,0,0,0-.22.515.62.62,0,0,0,.373.427l.589.3c.742.373,1.51.758,2.268,1.13a.343.343,0,0,1,.2.182.333.333,0,0,1-.045.255,22.656,22.656,0,0,0-.933,2.124.56.56,0,0,0,.009.543.2.2,0,0,1-.058.307c-.039.028-.077.06-.117.094l-.039.033A8.962,8.962,0,0,0,.384,18.838c-.02.1-.031.2-.043.306a2.307,2.307,0,0,1-.115.568v.155a.16.16,0,0,1,0,.155v.113a.429.429,0,0,1,0,.295v.812a.418.418,0,0,0,.362.362H1.623a.188.188,0,0,1,.146-.036h.069a.181.181,0,0,1,.149.035M1.552,20.56a.288.288,0,0,1-.227-.065c-.069-.071-.063-.169-.054-.318A7.926,7.926,0,0,1,4.4,14.2a.25.25,0,0,1,.389.027c.3.318.576.59.831.83a.3.3,0,0,1,.112.207.307.307,0,0,1-.118.216c-.442.429-.878.869-1.208,1.2a.518.518,0,0,0,.3.885.528.528,0,0,0,.472-.181l.356-.355c.275-.274.559-.557.834-.839a.281.281,0,0,1,.2-.105h0a.278.278,0,0,1,.195.105c.254.265.536.547.862.862a.233.233,0,0,1,.019.356,7.894,7.894,0,0,1-5.6,3.109l-.075.008-.116.012-.13.009-.03,0-.129,0m-.06-.228a1.624,1.624,0,0,0,.177,0l.028,0,.123-.008.109-.012.078-.009a7.676,7.676,0,0,0,5.448-3.023.277.277,0,0,0,.022-.032.207.207,0,0,0-.02-.022c-.328-.317-.612-.6-.868-.868a.321.321,0,0,0-.033-.03.324.324,0,0,0-.034.031c-.276.284-.561.567-.836.842l-.355.355a.754.754,0,0,1-.665.245.711.711,0,0,1-.6-.49.723.723,0,0,1,.179-.777c.331-.336.767-.778,1.211-1.209A.308.308,0,0,0,5.5,15.27a.244.244,0,0,0-.039-.044c-.258-.243-.533-.518-.84-.839a.223.223,0,0,0-.04-.035.225.225,0,0,0-.046.03A7.71,7.71,0,0,0,1.5,20.19a1.356,1.356,0,0,0,0,.142m12.354-1.189-.356-.71c-.277-.554-.564-1.127-.848-1.688a.238.238,0,0,1-.023-.189.249.249,0,0,1,.151-.137L12.8,16.4a23.922,23.922,0,0,0,2.863-1.964c.215-.172.425-.348.647-.534l.315-.263.217-.18-.033.28a8.081,8.081,0,0,1-2.854,5.3ZM12.84,16.635l0,.008c.284.562.571,1.135.848,1.689l.224.447A7.836,7.836,0,0,0,16.547,14l-.092.077c-.223.187-.434.364-.651.537a24.147,24.147,0,0,1-2.89,1.983.56.56,0,0,1-.052.026l-.023.011m-3.692.357a.4.4,0,0,1-.29-.146c-.458-.471-.914-.926-1.355-1.354a.257.257,0,0,1,0-.432c.954-.944,1.9-1.894,2.953-2.949a.622.622,0,0,0,.2-.472.482.482,0,0,0-.194-.353.534.534,0,0,0-.742.094l-.479.477c-.792.79-1.612,1.607-2.41,2.418a.4.4,0,0,1-.272.153h0a.391.391,0,0,1-.265-.151c-.358-.378-.737-.751-1.1-1.112l-.249-.246a.292.292,0,0,1-.083-.356A22.4,22.4,0,0,1,10.656,4.21,11.4,11.4,0,0,1,14.31,2.046a.437.437,0,0,1,.076-.019l.034-.007.113-.025.022.114a6.334,6.334,0,0,0,.679,1.919A6.33,6.33,0,0,0,19.505,7.22a.269.269,0,0,1,.234.424L19.634,7.6l.105.041a12.783,12.783,0,0,1-3.332,4.785A23.363,23.363,0,0,1,9.338,16.95a.5.5,0,0,1-.19.043M7.611,15.275a.332.332,0,0,0,.049.055c.442.429.9.886,1.359,1.359.082.084.118.1.233.052a23.14,23.14,0,0,0,7-4.478,12.563,12.563,0,0,0,3.275-4.7.349.349,0,0,0,.026-.092.461.461,0,0,0-.1-.03,6.548,6.548,0,0,1-4.418-3.3,6.474,6.474,0,0,1-.68-1.868,11.156,11.156,0,0,0-3.551,2.109A22.176,22.176,0,0,0,5.06,12.648c-.021.051-.021.058.032.111L5.341,13c.367.362.746.736,1.107,1.117.073.077.1.08.1.08s.034-.006.112-.085c.8-.811,1.619-1.629,2.411-2.419l.479-.477a.761.761,0,0,1,1.039-.114.7.7,0,0,1,.282.518.847.847,0,0,1-.262.646c-1.052,1.056-2,2.006-2.955,2.95a.3.3,0,0,0-.047.055M5.188,9.2A.418.418,0,0,1,5,9.145c-.532-.274-1.079-.547-1.608-.81l-.576-.287-.131-.066.1-.11A8.1,8.1,0,0,1,8.1,5.015l.285-.034-.256.3-.11.129A23.141,23.141,0,0,0,5.437,9.018a.293.293,0,0,1-.25.182M3.049,7.912l.443.221c.53.264,1.078.536,1.611.812.067.034.085.031.085.03s.017-.007.053-.07a23.366,23.366,0,0,1,2.59-3.627A7.855,7.855,0,0,0,3.049,7.912M19.994,6.26a.437.437,0,0,1-.094-.011,5.316,5.316,0,0,1-4.239-3.968c-.072-.253-.12-.42-.044-.544s.224-.154.522-.216h.006a12.982,12.982,0,0,1,2.678-.253c.264,0,.68.035,1.121.077l.193.018a.328.328,0,0,1,.328.326,12.471,12.471,0,0,1-.233,4.348c-.035.151-.112.224-.238.224M18.862,1.492h-.036a12.772,12.772,0,0,0-2.635.249h-.006a1,1,0,0,0-.375.112.962.962,0,0,0,.068.366,5.1,5.1,0,0,0,4.071,3.809A.242.242,0,0,0,20,6.035a.229.229,0,0,0,.017-.051h0a12.246,12.246,0,0,0,.229-4.27c-.012-.1-.031-.12-.125-.128l-.194-.018c-.415-.039-.807-.076-1.062-.076" transform="translate(0 0)" fill="#4d4f5c"/>
      <path id="Path_24020" data-name="Path 24020" d="M191.862,100.553A2.742,2.742,0,1,0,194.6,103.3a2.741,2.741,0,0,0-2.734-2.747m-.011,4.215a1.474,1.474,0,0,1,0-2.948,1.474,1.474,0,1,1,0,2.948" transform="translate(-178.442 -94.879)" fill="#4d4f5c"/>
      <path id="Path_24021" data-name="Path 24021" d="M189.965,104.263a2.855,2.855,0,1,1,0-5.709h0a2.838,2.838,0,0,1,2.847,2.861,2.865,2.865,0,0,1-2.845,2.848Zm0-5.483a2.629,2.629,0,0,0,0,5.258h.009a2.638,2.638,0,0,0,2.62-2.623,2.613,2.613,0,0,0-2.621-2.634Zm0,4.215h-.012a1.587,1.587,0,0,1,0-3.174h0a1.568,1.568,0,0,1,1.585,1.574,1.586,1.586,0,0,1-.468,1.14,1.563,1.563,0,0,1-1.111.46m-.01-.226h.01a1.339,1.339,0,0,0,.952-.394,1.362,1.362,0,0,0,.4-.979,1.345,1.345,0,0,0-1.359-1.35h0a1.361,1.361,0,0,0,0,2.723" transform="translate(-176.554 -92.993)" fill="#4d4f5c"/>
    </g>
  </g>
</svg>
