<svg id="emoji_events-24px" xmlns="http://www.w3.org/2000/svg" xmlns:xlink="http://www.w3.org/1999/xlink" width="24" height="24" viewBox="0 0 24 24">
  <defs>
    <clipPath id="clip-path">
      <rect id="Rectangle_7805" data-name="Rectangle 7805" width="22.954" height="19.333" fill="#4d4f5c"/>
    </clipPath>
  </defs>
  <g id="Bounding_Box">
    <rect id="Rectangle_340" data-name="Rectangle 340" width="24" height="24" fill="none"/>
  </g>
  <g id="Group_9303" data-name="Group 9303" transform="translate(0.572 2.667)">
    <g id="Group_9302" data-name="Group 9302" clip-path="url(#clip-path)">
      <path id="Path_24022" data-name="Path 24022" d="M24.5,8.919c-.725-1.237-1.454-2.471-2.176-3.709-.547-.938-1.1-1.873-1.65-2.81a.709.709,0,0,0-1.016-.315c-.126.062-.249.13-.371.2-.613.356-1.225.715-1.843,1.065a.434.434,0,0,1-.4.033c-.624-.229-1.249-.457-1.872-.69a2.52,2.52,0,0,0-2.256.2c-.991.575-1.985,1.144-2.975,1.719a.407.407,0,0,1-.47,0c-.536-.327-1.087-.63-1.63-.946-.345-.2-.682-.416-1.04-.593a.711.711,0,0,0-1.016.321C5.265,4.342,4.757,5.3,4.244,6.259Q3.277,8.066,2.306,9.872A2.643,2.643,0,0,0,2,10.553v.355a.738.738,0,0,0,.448.535c.372.2.73.421,1.095.631.208.12.209.123.081.339-.21.357-.415.716-.617,1.077a2.042,2.042,0,0,0,.323,2.4,1.937,1.937,0,0,0,1.556.619.375.375,0,0,1,.428.26,1.241,1.241,0,0,0,.272.4,2.009,2.009,0,0,0,1.6.673c.157-.007.3-.008.391.172a1.964,1.964,0,0,0,1.933,1.155.382.382,0,0,1,.413.249,1.819,1.819,0,0,0,.857.867,2.059,2.059,0,0,0,2.623-.646c.16-.238.169-.237.42-.093.725.415,1.447.835,2.171,1.25a2.04,2.04,0,0,0,2.988-1.151c.06-.175.128-.238.329-.218A2.034,2.034,0,0,0,21.525,17.8c.034-.164.107-.21.264-.226a2.045,2.045,0,0,0,1.7-2.888.293.293,0,0,1,.079-.4,2.039,2.039,0,0,0-.038-3.059c-.134-.122-.117-.185.011-.289.276-.223.544-.456.826-.671a.836.836,0,0,0,.354-.512V9.444a1.693,1.693,0,0,0-.216-.525M5.363,14.835a.6.6,0,0,1-.56.3.646.646,0,0,1-.586-.939c.365-.682.758-1.349,1.158-2.012a.641.641,0,0,1,.879-.2.655.655,0,0,1,.259.867c-.371.67-.758,1.332-1.149,1.991M7.7,16.12a.633.633,0,0,1-.455.342c-.623,0-.961-.51-.719-.949.513-.929,1.05-1.846,1.59-2.76a.648.648,0,0,1,.9-.207.657.657,0,0,1,.234.891c-.356.637-.726,1.267-1.091,1.9-.151.262-.3.524-.455.784m2.319,1.311a.666.666,0,1,1-1.151-.664q.536-.942,1.083-1.877a.662.662,0,0,1,1.239.34.657.657,0,0,1-.109.363c-.354.613-.7,1.227-1.062,1.838m2.934.244c-.209.364-.416.729-.63,1.091a.666.666,0,1,1-1.149-.669c.214-.378.428-.757.653-1.128a.656.656,0,0,1,.769-.288.669.669,0,0,1,.456.649.625.625,0,0,1-.1.345m9.8-4.56a.67.67,0,0,1-.947.215c-.871-.5-1.737-1-2.608-1.5a.665.665,0,0,0-1.032.461.689.689,0,0,0,.4.7q1.657.958,3.316,1.913a.7.7,0,0,1,.4.55.625.625,0,0,1-.3.625.66.66,0,0,1-.733,0l-2.625-1.517c-.256-.148-.509-.3-.767-.441a.67.67,0,0,0-.941.238.661.661,0,0,0,.278.913c.873.51,1.749,1.013,2.624,1.518a.652.652,0,0,1,.361.679.636.636,0,0,1-.5.56.714.714,0,0,1-.57-.11q-1.282-.744-2.569-1.481a.666.666,0,0,0-1.036.456.679.679,0,0,0,.372.7c.491.286.985.565,1.475.853a.664.664,0,0,1-.161,1.227.646.646,0,0,1-.512-.079c-.786-.452-1.571-.908-2.358-1.36-.089-.051-.122-.091-.078-.2a1.98,1.98,0,0,0-1.6-2.689c-.105-.011-.132-.054-.132-.155A1.975,1.975,0,0,0,10.8,13.24c-.106-.012-.14-.049-.146-.164a1.98,1.98,0,0,0-2.944-1.709c-.108.055-.151.047-.227-.046A1.972,1.972,0,0,0,4.7,10.977c-.08.059-.137.085-.233.026q-.386-.238-.786-.452c-.109-.058-.1-.111-.05-.206Q5.137,7.54,6.638,4.73c.057-.106.1-.106.2-.05.5.3,1.008.584,1.542.891A2,2,0,0,0,7.412,6.9a1.9,1.9,0,0,0,.728,1.987,1.85,1.85,0,0,0,2.1.206c.751-.392,1.476-.836,2.211-1.258.371-.213.743-.425,1.109-.645a.242.242,0,0,1,.281,0q4.318,2.5,8.639,5a.662.662,0,0,1,.275.93m.292-3.564c-.3.23-.588.472-.872.719a.217.217,0,0,1-.3.028q-3.214-1.865-6.434-3.718c-.428-.247-.863-.482-1.282-.743a.81.81,0,0,0-.928.01c-1.15.677-2.31,1.337-3.464,2.006a.729.729,0,0,1-.548.113.661.661,0,0,1-.175-1.232q2.115-1.224,4.233-2.442a2.519,2.519,0,0,1,.708-.355c.086-.018.174-.03.2-.034a1.37,1.37,0,0,1,.536.1c.767.282,1.536.56,2.3.849a.76.76,0,0,0,.7-.056c.63-.369,1.266-.727,1.894-1.1.133-.079.188-.059.264.072Q21.481,6.521,23.1,9.264c.076.128.067.193-.051.285" transform="translate(-1.883 -1.866)" fill="#4d4f5c"/>
      <path id="Path_24023" data-name="Path 24023" d="M15.134,19.333h-.076a2.14,2.14,0,0,1-1-.3l-1.089-.627-1.082-.623a1.041,1.041,0,0,0-.16-.082,1,1,0,0,0-.1.139,2.186,2.186,0,0,1-2.775.686,1.934,1.934,0,0,1-.911-.923.266.266,0,0,0-.3-.18A2.074,2.074,0,0,1,5.592,16.2c-.054-.107-.117-.114-.281-.107a2.133,2.133,0,0,1-1.693-.709,1.335,1.335,0,0,1-.3-.441.26.26,0,0,0-.311-.184,2.053,2.053,0,0,1-1.647-.654,2.149,2.149,0,0,1-.342-2.54c.228-.406.43-.759.619-1.08.023-.039.051-.086.064-.114-.024-.017-.066-.041-.1-.062-.125-.072-.249-.145-.373-.218C1,9.954.754,9.811.511,9.681A.864.864,0,0,1,0,9.061l0-.019,0-.38a2.236,2.236,0,0,1,.259-.607l.058-.105.1-.189Q1.34,6.049,2.257,4.336l.3-.553c.406-.761.827-1.547,1.25-2.316A.83.83,0,0,1,4.975,1.1c.261.129.513.28.756.425.1.058.193.115.29.172q.276.16.554.318c.355.2.723.412,1.078.629a.291.291,0,0,0,.349,0q.766-.445,1.535-.887.721-.415,1.44-.832A2.652,2.652,0,0,1,13.335.715c.523.2,1.056.391,1.572.58l.3.11a.316.316,0,0,0,.3-.025c.485-.274.974-.559,1.448-.835l.394-.229c.143-.083.263-.148.378-.2A.828.828,0,0,1,18.9.473l.584.993c.35.6.713,1.211,1.067,1.818.437.75.885,1.51,1.317,2.246q.43.731.859,1.463a1.823,1.823,0,0,1,.23.562l0,.023,0,.333a.956.956,0,0,1-.4.584c-.182.139-.362.289-.537.433-.1.079-.19.158-.286.236a.35.35,0,0,0-.057.054.307.307,0,0,0,.051.055,2.157,2.157,0,0,1,.04,3.233c-.1.095-.108.137-.053.263a2.164,2.164,0,0,1-1.794,3.053c-.117.011-.138.029-.16.132a2.145,2.145,0,0,1-2.114,1.737q-.111,0-.224-.011c-.135-.013-.16,0-.206.138a2.15,2.15,0,0,1-2.081,1.515m-3.422-1.869a.655.655,0,0,1,.291.114l1.083.624q.544.314,1.088.627a1.922,1.922,0,0,0,2.817-1.086.375.375,0,0,1,.453-.3,1.914,1.914,0,0,0,2.083-1.539.36.36,0,0,1,.369-.319,1.927,1.927,0,0,0,1.6-2.722.408.408,0,0,1,.106-.53,1.921,1.921,0,0,0-.036-2.886.266.266,0,0,1,.015-.469c.1-.077.19-.156.284-.234.176-.146.358-.3.544-.439a.717.717,0,0,0,.307-.43V7.59a1.579,1.579,0,0,0-.2-.477q-.429-.732-.859-1.463c-.433-.736-.88-1.5-1.317-2.247-.354-.606-.716-1.222-1.066-1.817L18.691.593a.593.593,0,0,0-.862-.269c-.11.054-.225.116-.363.2L17.072.75c-.474.276-.964.561-1.45.836a.55.55,0,0,1-.5.041l-.3-.11c-.516-.189-1.05-.385-1.574-.58a2.4,2.4,0,0,0-2.156.191q-.72.418-1.441.833-.767.443-1.534.887a.524.524,0,0,1-.591,0c-.353-.215-.719-.424-1.072-.626Q6.18,2.059,5.9,1.9c-.1-.057-.2-.115-.293-.173-.24-.143-.488-.291-.74-.416a.6.6,0,0,0-.86.272c-.423.767-.842,1.554-1.249,2.314l-.3.553Q1.549,6.161.629,7.873l-.1.189-.059.108A2.07,2.07,0,0,0,.237,8.7v.332a.621.621,0,0,0,.386.44c.247.132.492.276.728.416.123.073.246.146.37.217s.2.114.222.2-.022.169-.1.3c-.188.319-.389.67-.616,1.075a1.911,1.911,0,0,0,.3,2.259A1.826,1.826,0,0,0,3,14.525a.487.487,0,0,1,.546.336,1.112,1.112,0,0,0,.247.363,1.883,1.883,0,0,0,1.511.636.462.462,0,0,1,.5.237,1.856,1.856,0,0,0,1.824,1.09.5.5,0,0,1,.523.318,1.7,1.7,0,0,0,.8.811,1.946,1.946,0,0,0,2.471-.607c.113-.168.186-.244.287-.244m3.438.482a.815.815,0,0,1-.409-.118l-1.027-.592q-.665-.384-1.331-.767a.248.248,0,0,1-.129-.348,1.856,1.856,0,0,0-.143-1.651,1.809,1.809,0,0,0-1.355-.878.243.243,0,0,1-.238-.273,1.849,1.849,0,0,0-1.613-1.829.252.252,0,0,1-.251-.276,1.908,1.908,0,0,0-.936-1.6,1.888,1.888,0,0,0-1.836-.008A.259.259,0,0,1,5.51,9.53a1.857,1.857,0,0,0-2.625-.323.294.294,0,0,1-.365.031c-.246-.152-.508-.3-.78-.448a.258.258,0,0,1-.146-.174.3.3,0,0,1,.048-.192C2.728,6.4,3.712,4.566,4.651,2.808A.262.262,0,0,1,4.8,2.665a.265.265,0,0,1,.209.047c.371.219.74.43,1.13.654l.411.236.169.1L6.556,3.8a1.888,1.888,0,0,0-.911,1.252,1.776,1.776,0,0,0,.684,1.871A1.733,1.733,0,0,0,8.3,7.123c.528-.275,1.053-.582,1.56-.879.215-.126.431-.252.647-.376l.13-.074c.322-.185.655-.376.978-.57a.359.359,0,0,1,.4,0Q14.36,6.575,16.7,7.927l3.957,2.288a.839.839,0,0,1,.4.508.763.763,0,0,1-.086.584.785.785,0,0,1-1.108.257q-.608-.348-1.215-.7c-.456-.264-.928-.536-1.394-.8a.6.6,0,0,0-.56-.041.548.548,0,0,0-.3.419.575.575,0,0,0,.339.582l.481.278c.929.537,1.889,1.092,2.834,1.635a.809.809,0,0,1,.455.641.742.742,0,0,1-.351.736.781.781,0,0,1-.856,0l-2.095-1.21-.53-.306-.232-.135c-.174-.1-.354-.207-.533-.306a.55.55,0,0,0-.78.192.543.543,0,0,0,.234.753c.621.363,1.255.729,1.869,1.082l.755.436a.766.766,0,0,1,.42.8.756.756,0,0,1-.582.66.832.832,0,0,1-.661-.121c-.772-.448-1.671-.969-2.568-1.481a.606.606,0,0,0-.563-.044.54.54,0,0,0-.3.416.562.562,0,0,0,.315.574q.331.193.664.384c.266.153.541.311.811.469a.782.782,0,0,1-.188,1.443.715.715,0,0,1-.194.027M12.465,16.24a.282.282,0,0,0,.037.024q.667.382,1.332.768l1.026.592a.549.549,0,0,0,.835-.392.52.52,0,0,0-.282-.551c-.269-.158-.543-.316-.809-.468q-.333-.191-.666-.384a.8.8,0,0,1-.429-.818.781.781,0,0,1,.429-.591.839.839,0,0,1,.782.052c.9.512,1.8,1.033,2.569,1.482a.591.591,0,0,0,.478.1.519.519,0,0,0,.411-.461.532.532,0,0,0-.3-.562l-.755-.436c-.613-.354-1.248-.72-1.87-1.083a.778.778,0,0,1-.322-1.072.788.788,0,0,1,1.1-.284c.181.1.363.206.538.308l.231.134.53.306,2.095,1.21a.544.544,0,0,0,.61,0,.505.505,0,0,0,.243-.514.575.575,0,0,0-.338-.458c-.946-.544-1.906-1.1-2.835-1.635l-.481-.278a.809.809,0,0,1-.455-.825.782.782,0,0,1,.429-.595.834.834,0,0,1,.779.049c.466.266.938.539,1.395.8q.606.35,1.214.7a.55.55,0,0,0,.787-.172.528.528,0,0,0,.061-.4.605.605,0,0,0-.293-.363L16.583,8.132,11.9,5.425a.128.128,0,0,0-.161,0c-.325.2-.659.387-.982.572l-.13.074c-.216.124-.431.25-.645.375-.51.3-1.037.607-1.57.885a1.979,1.979,0,0,1-2.229-.218,2.021,2.021,0,0,1-.771-2.1,2.055,2.055,0,0,1,.857-1.3l-.247-.142c-.391-.224-.76-.436-1.132-.656L4.868,2.9,4.86,2.92C3.921,4.677,2.937,6.514,1.85,8.535c-.009.016-.014.027-.017.035l.019.011c.276.148.543.3.792.456.037.023.04.025.1-.02a2.085,2.085,0,0,1,2.948.365.259.259,0,0,0,.034.036A.266.266,0,0,0,5.774,9.4,2.1,2.1,0,0,1,8.891,11.2a.212.212,0,0,0,.006.046.18.18,0,0,0,.035.006,2.088,2.088,0,0,1,1.824,2.064.24.24,0,0,0,0,.033l.025,0a2.044,2.044,0,0,1,1.532.99,2.091,2.091,0,0,1,.161,1.86.2.2,0,0,0-.01.032M9.846,17.384a.789.789,0,0,1-.659-1.213c.21-.372.427-.756.655-1.131a.772.772,0,0,1,.9-.34.785.785,0,0,1,.541.759.735.735,0,0,1-.115.408l-.136.238c-.161.281-.327.571-.494.854a.813.813,0,0,1-.7.425m.66-2.483a.532.532,0,0,0-.461.262c-.226.372-.442.755-.651,1.125a.548.548,0,1,0,.944.55c.167-.282.332-.571.493-.851l.136-.238a.508.508,0,0,0,.084-.279v-.008a.554.554,0,0,0-.372-.535.605.605,0,0,0-.173-.026M7.541,16.053a.788.788,0,0,1-.659-1.212c.293-.514.68-1.192,1.083-1.878a.781.781,0,0,1,1.46.4.785.785,0,0,1-.125.426l-.327.567c-.24.417-.488.849-.736,1.272a.813.813,0,0,1-.7.429M8.635,12.8a.536.536,0,0,0-.466.281c-.4.685-.79,1.362-1.082,1.876a.548.548,0,1,0,.946.546c.247-.422.5-.853.735-1.27l.327-.567a.54.54,0,0,0,.094-.3v-.008a.536.536,0,0,0-.4-.538.576.576,0,0,0-.158-.023M5.36,14.714a.919.919,0,0,1-.814-.415.7.7,0,0,1-.005-.71c.52-.94,1.072-1.883,1.592-2.763a.734.734,0,0,1,.457-.34.8.8,0,0,1,.6.091.778.778,0,0,1,.276,1.05c-.258.462-.527.926-.788,1.376l-.3.525-.086.149c-.12.209-.245.426-.37.637a.746.746,0,0,1-.555.4ZM6.779,10.7a.544.544,0,0,0-.132.016.5.5,0,0,0-.311.23c-.519.878-1.071,1.819-1.589,2.757a.467.467,0,0,0,0,.475.685.685,0,0,0,.609.3h0a.532.532,0,0,0,.354-.284c.125-.21.249-.426.369-.634l.086-.149.3-.525c.26-.449.529-.912.786-1.372a.536.536,0,0,0-.192-.732.561.561,0,0,0-.289-.08m-3.84,2.683H2.917A.783.783,0,0,1,2.245,13a.736.736,0,0,1-.016-.729c.4-.747.831-1.47,1.161-2.017a.758.758,0,0,1,1.04-.244.777.777,0,0,1,.3,1.027c-.322.581-.677,1.2-1.151,1.994a.717.717,0,0,1-.643.354m1.088-3.248a.5.5,0,0,0-.434.24c-.329.544-.757,1.264-1.155,2.006a.5.5,0,0,0,.011.5.549.549,0,0,0,.473.269.486.486,0,0,0,.458-.238c.473-.8.827-1.409,1.148-1.988a.537.537,0,0,0-.214-.707.57.57,0,0,0-.285-.078M20.135,8.6a.406.406,0,0,1-.2-.064c-1.791-1.039-3.615-2.092-5.379-3.109L13.5,4.814c-.132-.076-.265-.152-.4-.227-.293-.166-.6-.337-.887-.519a.689.689,0,0,0-.805.011c-.747.44-1.511.88-2.249,1.305q-.608.35-1.216.7a.858.858,0,0,1-.634.126A.779.779,0,0,1,7.1,4.763C8.6,3.895,9.988,3.1,11.335,2.321c.053-.031.106-.063.158-.1a1.835,1.835,0,0,1,.584-.272c.07-.015.139-.025.18-.031l.042-.005a1.479,1.479,0,0,1,.578.11l.545.2c.576.211,1.172.429,1.756.649a.641.641,0,0,0,.6-.047q.421-.247.844-.489c.345-.2.7-.4,1.049-.609a.316.316,0,0,1,.241-.056.325.325,0,0,1,.186.171c1.066,1.827,2.15,3.675,3.223,5.494a.292.292,0,0,1-.08.439c-.273.211-.556.445-.867.715a.359.359,0,0,1-.237.105m-8.3-4.887a.948.948,0,0,1,.508.159c.287.179.588.349.878.514.134.076.267.151.4.228l1.055.609c1.764,1.018,3.588,2.07,5.379,3.109.082.048.1.042.165-.015.314-.273.6-.509.877-.723.068-.052.068-.052.021-.131-1.073-1.819-2.158-3.668-3.224-5.495A.29.29,0,0,0,17.85,1.9a.26.26,0,0,0-.06.029c-.349.207-.706.412-1.052.611q-.422.243-.843.488a.881.881,0,0,1-.8.065c-.583-.22-1.178-.438-1.754-.649l-.546-.2a1.259,1.259,0,0,0-.485-.1l-.019,0c-.038.006-.1.015-.166.029a1.631,1.631,0,0,0-.508.242c-.055.034-.11.068-.165.1C10.106,3.3,8.721,4.1,7.22,4.968a.543.543,0,0,0,.143,1.014.6.6,0,0,0,.462-.1q.607-.352,1.216-.7c.738-.425,1.5-.864,2.247-1.3a1.066,1.066,0,0,1,.543-.167" transform="translate(0 0)" fill="#4d4f5c"/>
    </g>
  </g>
</svg>
