<svg xmlns="http://www.w3.org/2000/svg" xmlns:xlink="http://www.w3.org/1999/xlink" width="29" height="29" viewBox="0 0 29 29">
  <defs>
    <clipPath id="clip-path">
      <rect id="Rectangle_6367" data-name="Rectangle 6367" width="24.649" height="24.648" fill="#fff"/>
    </clipPath>
  </defs>
  <g id="Group_7851" data-name="Group 7851" transform="translate(-137.333 -631.333)">
    <rect id="Rectangle_6365" data-name="Rectangle 6365" width="29" height="29" transform="translate(137.333 631.333)" fill="none"/>
    <g id="Group_7850" data-name="Group 7850" transform="translate(139.473 633.473)">
      <g id="Group_7849" data-name="Group 7849" clip-path="url(#clip-path)">
        <path id="Path_21009" data-name="Path 21009" d="M26.376,8.817a2.134,2.134,0,0,0-.217-.952,2.252,2.252,0,0,0-2.192-1.3c-1.433,0-2.866,0-4.3,0-.161,0-.234-.034-.266-.206A5.3,5.3,0,0,0,8.984,6.321c-.036.2-.1.254-.3.253-1.416-.009-2.832-.007-4.248,0A2.262,2.262,0,0,0,2,9q0,1.366,0,2.731c0,1.062,0,2.124,0,3.186a.689.689,0,0,0,.555.764c.193.035.207.117.207.276q-.006,4,0,7.991a2.884,2.884,0,0,0,.077.726,2.235,2.235,0,0,0,2.276,1.7q4.539,0,9.079,0,4.5,0,9,0a2.81,2.81,0,0,0,.75-.084,2.238,2.238,0,0,0,1.672-2.277q0-3.515,0-7.03c0-.371,0-.742,0-1.113,0-.1.005-.154.136-.179a.7.7,0,0,0,.624-.785q0-3.047,0-6.094M10.511,6.346a3.808,3.808,0,0,1,7.354-.01c.051.186.027.24-.182.238-1.171-.011-2.342-.005-3.513-.005s-2.325,0-3.488,0c-.2,0-.217-.056-.171-.227M24.1,23.952c0,.643-.263.9-.906.9H5.236c-.71,0-.952-.245-.952-.96,0-2.638,0-5.277-.006-7.915,0-.221.048-.277.274-.276q3.54.014,7.081,0c.243,0,.3.074.28.294a3.7,3.7,0,0,0,0,.556.667.667,0,0,0,.659.668q1.618.02,3.236,0a.665.665,0,0,0,.655-.671,5.427,5.427,0,0,0,0-.632c-.01-.164.039-.213.207-.211.91.008,1.821,0,2.731,0,1.475,0,2.95,0,4.425,0,.2,0,.271.031.27.254-.009,2.664-.005,5.327-.006,7.991m-10.669-9.61c0-.122.035-.156.155-.154.4.007.807.01,1.211,0,.146,0,.161.056.16.175-.005.4-.008.79,0,1.185,0,.133-.036.174-.168.167-.2-.011-.4,0-.605,0s-.387-.007-.58,0c-.125.006-.177-.021-.174-.162.01-.4.008-.807,0-1.211m11.257-.149q-4.02,0-8.041,0c-.154,0-.179-.057-.174-.19.009-.21.008-.422,0-.632a.68.68,0,0,0-.687-.7q-1.593-.017-3.186,0a.675.675,0,0,0-.681.7,5.568,5.568,0,0,0,0,.607c.011.163-.036.213-.205.211-.809-.009-1.618,0-2.427,0-1.837,0-3.675,0-5.512,0-.193,0-.251-.042-.25-.244.009-1.627.005-3.253.005-4.88,0-.745.23-.972.986-.972H23.9a1.459,1.459,0,0,1,.476.046.713.713,0,0,1,.478.729c0,1.719,0,3.439.006,5.158,0,.145-.057.161-.177.161" transform="translate(-1.865 -1.867)" fill="#fff"/>
        <path id="Path_21010" data-name="Path 21010" d="M21.332,24.648H9.747q-3.249,0-6.5,0A2.37,2.37,0,0,1,.841,22.84a2.962,2.962,0,0,1-.081-.76q0-1.386,0-2.773,0-2.609,0-5.218c0-.125,0-.125-.1-.143A.818.818,0,0,1,0,13.05c0-.763,0-1.538,0-2.288V9.02q0-.944,0-1.888A2.385,2.385,0,0,1,2.566,4.567c1.354,0,2.8-.005,4.25,0,.136,0,.145-.007.169-.141a5.433,5.433,0,0,1,10.685.044c.017.091.02.1.133.1,1.207-.005,2.435,0,3.622,0H22.1a2.387,2.387,0,0,1,2.313,1.371,2.265,2.265,0,0,1,.231,1.012c0,2.369,0,4.305,0,6.095a.835.835,0,0,1-.734.918l-.026.006c0,.014,0,.031,0,.039,0,.27,0,.539,0,.809v2.363q0,2.486,0,4.973a2.385,2.385,0,0,1-1.772,2.407,2.887,2.887,0,0,1-.783.089m-5.312-.271h5.312a2.635,2.635,0,0,0,.712-.079,2.1,2.1,0,0,0,1.573-2.147q0-2.486,0-4.972V14.816c0-.269,0-.537,0-.806a.269.269,0,0,1,.247-.313.568.568,0,0,0,.514-.653c0-1.789,0-3.726,0-6.094a2,2,0,0,0-.2-.892A2.11,2.11,0,0,0,22.1,4.837h-.678c-1.187,0-2.414,0-3.62,0a.344.344,0,0,1-.4-.316A5.162,5.162,0,0,0,7.252,4.478a.378.378,0,0,1-.437.364c-1.452-.01-2.894-.007-4.247,0a2.134,2.134,0,0,0-2.3,2.294q0,.944,0,1.888v1.742c0,.75,0,1.525,0,2.287a.565.565,0,0,0,.444.631c.294.053.318.231.318.409q0,2.609,0,5.218,0,1.387,0,2.773a2.714,2.714,0,0,0,.073.692,2.11,2.11,0,0,0,2.145,1.6q3.249,0,6.5,0h6.274Zm.82-1.251H3.37c-.783,0-1.088-.307-1.088-1.095V20.285c0-2.022,0-4.113-.006-6.169a.428.428,0,0,1,.093-.319.428.428,0,0,1,.316-.093c2.444.01,4.826.01,7.079,0a.445.445,0,0,1,.338.108.418.418,0,0,1,.077.334,3.608,3.608,0,0,0,0,.535.532.532,0,0,0,.526.541c1.086.013,2.173.013,3.233,0a.53.53,0,0,0,.522-.544,5.243,5.243,0,0,0,0-.616.344.344,0,0,1,.072-.268.355.355,0,0,1,.271-.087c.676.006,1.364.005,2.029,0H18.6c1.1,0,2.244,0,3.365-.005a.418.418,0,0,1,.314.09.41.41,0,0,1,.092.3c-.006,1.958-.006,3.949-.006,5.874q0,1.058,0,2.116c0,.719-.321,1.04-1.041,1.04H16.841m-4.518-.27h9c.569,0,.77-.2.771-.77q0-1.058,0-2.116c0-1.926,0-3.917.006-5.875a.233.233,0,0,0-.013-.109.381.381,0,0,0-.121-.01c-1.123.006-2.264.006-3.367.005h-1.76c-.666,0-1.354,0-2.032,0a.308.308,0,0,0-.07.005.289.289,0,0,0,0,.063,5.5,5.5,0,0,1,0,.648.8.8,0,0,1-.789.8c-1.062.013-2.152.014-3.24,0a.8.8,0,0,1-.793-.795,3.849,3.849,0,0,1,0-.576c.01-.107-.006-.126-.007-.126s-.017-.022-.138-.02c-2.255.01-4.637.01-7.082,0-.1,0-.123.013-.125.015a.3.3,0,0,0-.013.126c.007,2.057.006,4.148.006,6.17V22.03c0,.64.183.824.817.825Zm.624-8.871h-.034c-.137-.007-.279-.006-.416,0q-.178,0-.356,0c-.131,0-.268,0-.4,0a.262.262,0,0,1-.315-.3c.009-.361.009-.744,0-1.2a.253.253,0,0,1,.293-.292c.354.006.773.011,1.2,0a.3.3,0,0,1,.226.071.311.311,0,0,1,.073.242c0,.325-.008.753,0,1.181a.306.306,0,0,1-.076.237.28.28,0,0,1-.2.069m-.271-.277c.083,0,.168,0,.252.006h.025c0-.007,0-.017,0-.03-.01-.432-.006-.863,0-1.19,0-.017,0-.029,0-.038h-.02c-.437.012-.86.008-1.217,0H11.7s0,.01,0,.016c.008.465.008.852,0,1.217,0,.01,0,.018,0,.024h.032c.139-.007.28-.005.415,0q.175,0,.35,0h.182M1.9,12.463a.39.39,0,0,1-.291-.088.393.393,0,0,1-.088-.292c.007-1.235.006-2.491.006-3.705q0-.587,0-1.174c0-.817.293-1.107,1.121-1.107H22.08a1.416,1.416,0,0,1,.475.054.844.844,0,0,1,.57.857q0,1.258,0,2.516,0,1.321,0,2.642a.3.3,0,0,1-.074.223.315.315,0,0,1-.237.074h0c-3.227,0-5.707,0-8.04,0h0a.319.319,0,0,1-.238-.081.325.325,0,0,1-.07-.25c.008-.2.008-.412,0-.62a.546.546,0,0,0-.554-.566c-1.087-.011-2.158-.011-3.183,0a.539.539,0,0,0-.548.571,5.464,5.464,0,0,0,0,.592.343.343,0,0,1-.071.268.35.35,0,0,1-.271.087c-.6-.007-1.2-.006-1.788,0H6.181c-1.4,0-2.853,0-4.279,0Zm-.1-.278a.488.488,0,0,0,.1.007c1.427-.006,2.877-.005,4.28,0h1.87c.587,0,1.194,0,1.791,0a.3.3,0,0,0,.068,0,.3.3,0,0,0,0-.062,5.731,5.731,0,0,1,0-.621.808.808,0,0,1,.815-.829c1.027-.012,2.1-.012,3.189,0a.81.81,0,0,1,.821.824c.01.216.011.433,0,.644a.407.407,0,0,0,0,.047.223.223,0,0,0,.038,0c2.334,0,4.814,0,8.041,0h.041c0-.006,0-.014,0-.024q0-1.322,0-2.643,0-1.257,0-2.515a.581.581,0,0,0-.386-.6,1.19,1.19,0,0,0-.387-.039H2.643c-.683,0-.85.164-.85.837q0,.587,0,1.174c0,1.215,0,2.471-.006,3.707a.236.236,0,0,0,.011.1h0M15.829,4.842h-.013c-.872-.008-1.759-.007-2.617-.006H11.426c-.855,0-1.739,0-2.608,0a.33.33,0,0,1-.281-.1.332.332,0,0,1-.021-.3l.131.035-.131-.035a4,4,0,0,1,3.8-2.923h.009a3.963,3.963,0,0,1,3.8,2.911.344.344,0,0,1-.018.31.332.332,0,0,1-.283.1m-1.742-.277c.575,0,1.156,0,1.731.006a.646.646,0,0,0,.066,0c0-.015-.007-.035-.015-.065a3.74,3.74,0,0,0-3.543-2.713h-.008A3.729,3.729,0,0,0,8.776,4.514c-.007.024-.01.042-.013.055s.029,0,.052,0c.87-.007,1.755-.006,2.611,0h2.661" transform="translate(0 0)" fill="#fff"/>
      </g>
    </g>
  </g>
</svg>
