<svg xmlns="http://www.w3.org/2000/svg" width="24" height="24" viewBox="0 0 24 24">
  <g id="Group_8348" data-name="Group 8348" transform="translate(-78 -210)">
    <rect id="Rectangle_7220" data-name="Rectangle 7220" width="24" height="24" transform="translate(78 210)" fill="none"/>
    <path id="shop" d="M38.238,23.756l-.032-.13a.113.113,0,0,1-.032-.065l-2.366-6.643a.741.741,0,0,0-.745-.518H19.7a.8.8,0,0,0-.745.518l-2.4,6.611c0,.032-.032.065-.032.13l-.1.227a.411.411,0,0,0-.032.194,3.632,3.632,0,0,0-.1.778A3.368,3.368,0,0,0,18.5,28v9.721a.789.789,0,0,0,.778.778H35.743a.789.789,0,0,0,.778-.778V27.871A3.375,3.375,0,0,0,38.4,24.858a3.141,3.141,0,0,0-.1-.745.475.475,0,0,0-.065-.356ZM35,36.944H20.091V28.2c.032,0,.1-.032.13-.032A3.358,3.358,0,0,0,22.262,27a3.332,3.332,0,0,0,5.12,0,3.332,3.332,0,0,0,5.12,0,3.585,3.585,0,0,0,1.717,1.1h.032a.551.551,0,0,0,.227.032c.032,0,.1.032.13.032a.411.411,0,0,1,.194.032h.13v8.749Zm.583-10.369a2.064,2.064,0,0,0-.227.065c-.1,0-.162.032-.259.032a1.329,1.329,0,0,1-.356-.032c-.1-.032-.194-.032-.259-.1h-.032a1.772,1.772,0,0,1-1.1-1.523v-.13a.795.795,0,0,0-1.588-.032v.162a1.891,1.891,0,0,1-1.1,1.523h-.032l-.292.1h-.389a1.329,1.329,0,0,1-.356-.032c-.1-.032-.194-.032-.259-.1h-.032a1.772,1.772,0,0,1-1.1-1.523v-.13a.778.778,0,0,0-1.555,0v.162a1.891,1.891,0,0,1-1.1,1.523H25.5l-.292.1h-.389a1.453,1.453,0,0,1-.356-.032,1.03,1.03,0,0,1-.292-.1h-.032a1.772,1.772,0,0,1-1.1-1.523v-.13a.778.778,0,1,0-1.555,0v.162a1.891,1.891,0,0,1-1.1,1.523h-.032a2.233,2.233,0,0,0-.259.1H19.67a.411.411,0,0,1-.194-.032h-.1a1.8,1.8,0,0,1-1.491-1.75,1.6,1.6,0,0,1,.1-.486c0-.032,0-.065.032-.065l2.268-6.319H34.544l2.2,6.157a.1.1,0,0,0,.032.065l.032.13c0,.032,0,.065.032.065a1.6,1.6,0,0,1,.1.486,1.95,1.95,0,0,1-1.361,1.685Z" transform="translate(62.7 194.7)" fill="#4d4f5c"/>
  </g>
</svg>
