<svg xmlns="http://www.w3.org/2000/svg" xmlns:xlink="http://www.w3.org/1999/xlink" width="24" height="24" viewBox="0 0 24 24">
  <defs>
    <clipPath id="clip-path">
      <rect id="Rectangle_6349" data-name="Rectangle 6349" width="21.857" height="17.657" fill="#4d4f5c"/>
    </clipPath>
  </defs>
  <g id="Group_7843" data-name="Group 7843" transform="translate(4322 193)">
    <g id="Group_7842" data-name="Group 7842">
      <rect id="Rectangle_6348" data-name="Rectangle 6348" width="24" height="24" transform="translate(-4322 -193)" fill="none"/>
      <g id="Group_7833" data-name="Group 7833" transform="translate(-4321 -190)">
        <g id="Group_7832" data-name="Group 7832" clip-path="url(#clip-path)">
          <path id="Path_20996" data-name="Path 20996" d="M.037,7.014a2.149,2.149,0,0,1,2-1.842c1.017-.021,2.035-.013,3.052,0a.3.3,0,0,0,.342-.222C6.047,3.46,6.672,1.98,7.3.5A.733.733,0,0,1,8.168.026.75.75,0,0,1,8.649,1.1Q8.031,2.57,7.405,4.038c-.155.367-.31.735-.466,1.105.192.038,7.383.053,7.919.019.021-.085-.036-.149-.065-.217q-.806-1.915-1.617-3.828a.755.755,0,0,1,.35-1.051.745.745,0,0,1,1.013.471q.947,2.216,1.886,4.435a.268.268,0,0,0,.3.194c1-.007,1.992-.015,2.988,0a2.2,2.2,0,0,1,.074,4.39c-.149.006-.182.053-.195.2-.137,1.571-.265,3.143-.431,4.712a3.593,3.593,0,0,1-3.5,3.175q-4.738.035-9.477,0a3.613,3.613,0,0,1-3.538-3.378c-.063-.786-.147-1.57-.212-2.356a.721.721,0,0,1,.669-.849.739.739,0,0,1,.786.75c.069.807.135,1.615.221,2.42a2.171,2.171,0,0,0,1.977,1.931c.113.01.227.012.341.013,3,0,6-.016,9.007.008a2.273,2.273,0,0,0,2.348-2.162c.1-1.667.283-3.329.409-4.994.051-.669.389-.981,1.009-.93a5.156,5.156,0,0,0,.555,0,.731.731,0,0,0,.7-.9.716.716,0,0,0-.664-.567c-.106,0-.213,0-.32,0H2.265a.725.725,0,0,0-.772.512.736.736,0,0,0,.625.954c.078.007.156,0,.235,0H15.992A.734.734,0,1,1,16,9.565q-6.873,0-13.746,0A2.172,2.172,0,0,1,.041,7.777C.035,7.748.031,7.721,0,7.71V7.236c.051-.068,0-.153.037-.222" transform="translate(0 0)" fill="#4d4f5c"/>
          <path id="Path_20997" data-name="Path 20997" d="M.037,121.913a.258.258,0,0,1-.037.222v-.215a.047.047,0,0,1,.037-.007" transform="translate(0 -114.899)" fill="#4d4f5c"/>
        </g>
      </g>
    </g>
  </g>
</svg>
