<svg xmlns="http://www.w3.org/2000/svg" xmlns:xlink="http://www.w3.org/1999/xlink" width="24" height="24" viewBox="0 0 24 24">
  <defs>
    <clipPath id="clip-path">
      <rect id="Rectangle_6347" data-name="Rectangle 6347" width="20" height="20" transform="translate(0 0)" fill="#4d4f5c"/>
    </clipPath>
  </defs>
  <g id="Group_7841" data-name="Group 7841" transform="translate(4354 193)">
    <rect id="Rectangle_6343" data-name="Rectangle 6343" width="24" height="24" transform="translate(-4354 -193)" fill="none"/>
    <g id="Group_7831" data-name="Group 7831" transform="translate(-4352 -191)">
      <g id="Group_7830" data-name="Group 7830" clip-path="url(#clip-path)">
        <path id="Path_20992" data-name="Path 20992" d="M6.7,0Q4.632,0,2.566,0A2.476,2.476,0,0,0,.019,2.551c0,.689,0,1.378,0,2.067s0,1.378,0,2.067A2.478,2.478,0,0,0,2.566,9.231q2.066.006,4.133,0A2.475,2.475,0,0,0,9.246,6.684q.006-2.067,0-4.133A2.474,2.474,0,0,0,6.7,0m-.036,7.69H2.605A.953.953,0,0,1,1.557,6.636q0-1.02,0-2.041c0-.68,0-1.36,0-2.041A.943.943,0,0,1,2.578,1.542q2.053,0,4.105,0A.947.947,0,0,1,7.709,2.575q0,2.041,0,4.082A.949.949,0,0,1,6.663,7.694" transform="translate(-0.016 -0.001)" fill="#4d4f5c"/>
        <path id="Path_20993" data-name="Path 20993" d="M6.68,167.613q-2.067-.005-4.133,0A2.475,2.475,0,0,0,0,170.163Q0,172.23,0,174.3a2.477,2.477,0,0,0,2.55,2.545c.689,0,1.378,0,2.067,0s1.378,0,2.067,0a2.476,2.476,0,0,0,2.544-2.55q.006-2.067,0-4.133a2.475,2.475,0,0,0-2.55-2.544m1.012,6.69a.942.942,0,0,1-1.011,1c-.7,0-1.392,0-2.089,0-.68,0-1.36,0-2.041,0a.941.941,0,0,1-1.01-1q0-2.077,0-4.153a.94.94,0,0,1,1.011-1q2.065,0,4.13,0a.941.941,0,0,1,1.011,1q0,2.077,0,4.154" transform="translate(0 -156.844)" fill="#4d4f5c"/>
        <path id="Path_20994" data-name="Path 20994" d="M176.84,170.161a2.476,2.476,0,0,0-2.547-2.547q-2.067-.006-4.133,0a2.475,2.475,0,0,0-2.547,2.546q-.006,2.067,0,4.133a2.476,2.476,0,0,0,2.546,2.548q2.067.006,4.133,0a2.476,2.476,0,0,0,2.548-2.547c0-.681,0-1.362,0-2.042,0-.7,0-1.394,0-2.091m-1.538,4.145a.938.938,0,0,1-.989,1q-2.089,0-4.177,0a.934.934,0,0,1-.984-.976q0-2.1,0-4.2a.935.935,0,0,1,.988-.973c.7,0,1.409,0,2.113,0,.68,0,1.36,0,2.041,0a.941.941,0,0,1,1.009,1q0,2.077,0,4.154" transform="translate(-156.843 -156.844)" fill="#4d4f5c"/>
        <path id="Path_20995" data-name="Path 20995" d="M172.243,9.263a4.613,4.613,0,1,0-4.594-4.675,4.618,4.618,0,0,0,4.594,4.675m.028-7.689a3.076,3.076,0,1,1-3.085,3.078,3.08,3.08,0,0,1,3.085-3.078" transform="translate(-156.88 -0.033)" fill="#4d4f5c"/>
      </g>
    </g>
  </g>
</svg>
