<svg xmlns="http://www.w3.org/2000/svg" xmlns:xlink="http://www.w3.org/1999/xlink" width="24" height="24" viewBox="0 0 24 24">
  <defs>
    <clipPath id="clip-path">
      <rect id="Rectangle_6353" data-name="Rectangle 6353" width="19.985" height="20" fill="#e90075"/>
    </clipPath>
  </defs>
  <g id="Group_7838" data-name="Group 7838" transform="translate(4460 193)">
    <rect id="Rectangle_6352" data-name="Rectangle 6352" width="24" height="24" transform="translate(-4460 -193)" fill="none"/>
    <g id="Group_7837" data-name="Group 7837" transform="translate(-4458 -191)">
      <g id="Group_7836" data-name="Group 7836" clip-path="url(#clip-path)">
        <path id="Path_21000" data-name="Path 21000" d="M19.958,1.422A1.5,1.5,0,0,0,18.577.039a15.282,15.282,0,0,0-3.752.2,13.324,13.324,0,0,0-4.479,1.566A15.063,15.063,0,0,0,6.428,5.145a.47.47,0,0,1-.357.185c-.921.066-1.842.142-2.763.216a1.469,1.469,0,0,0-.69.245,1.254,1.254,0,0,0-.381.359C1.491,7.3.67,8.409,0,9.612v.43a1.121,1.121,0,0,0,.139.419,1.262,1.262,0,0,0,.977.529q1,.148,2.006.308c.121.019.19.059.172.2a1.568,1.568,0,0,0,.481,1.348q1.679,1.7,3.381,3.381a1.57,1.57,0,0,0,1.348.481c.125-.016.183.032.2.152.01.084.026.167.039.251.107.661.192,1.326.314,1.985a1.006,1.006,0,0,0,.906.9h.391c.12-.071.264-.088.383-.167,1.018-.676,2.04-1.344,3.054-2.024a1.477,1.477,0,0,0,.671-1.156c.075-.927.151-1.855.219-2.782a.344.344,0,0,1,.135-.26q.356-.3.7-.623A13.982,13.982,0,0,0,19.958,1.422M3.7,9.982c-.027.09-.046.163-.179.141-.75-.123-1.5-.236-2.277-.356L3.141,6.9a.387.387,0,0,1,.3-.186l1.867-.148c.016.077-.038.115-.068.16A12.967,12.967,0,0,0,3.7,9.982m5.428,5.355c-.226.058-.458.091-.685.146a.405.405,0,0,1-.409-.115L4.625,11.96a.349.349,0,0,1-.122-.3A9.066,9.066,0,0,1,4.96,9.9l5.133,5.134a6.532,6.532,0,0,1-.966.3m4.162,1.222a.369.369,0,0,1-.173.29l-2.881,1.908c-.065-.407-.128-.795-.189-1.182-.056-.36-.109-.719-.165-1.079-.014-.09-.014-.149.1-.184A13,13,0,0,0,13.361,14.7a.626.626,0,0,1,.081-.033l-.153,1.891M18.7,4.319a12.976,12.976,0,0,1-1.233,4.2,13.414,13.414,0,0,1-3.262,4.067,13.57,13.57,0,0,1-2.765,1.88.2.2,0,0,1-.279-.038q-2.79-2.8-5.589-5.593c-.072-.072-.124-.124-.06-.243A14.032,14.032,0,0,1,11.5,2.527a12.549,12.549,0,0,1,4.609-1.276,11.571,11.571,0,0,1,1.266-.06c.325,0,.651-.01.976,0s.441.128.459.456a14.671,14.671,0,0,1-.1,2.669" transform="translate(0 0)" fill="#e90075"/>
        <path id="Path_21001" data-name="Path 21001" d="M4.821,290.5a.583.583,0,0,0-1.012-.211q-1.721,1.715-3.438,3.435a1.948,1.948,0,0,0-.372.461v.312a.494.494,0,0,0,.43.43H.742a1.929,1.929,0,0,0,.475-.385c.208-.215.422-.424.634-.635q1.38-1.38,2.761-2.759a.617.617,0,0,0,.209-.647" transform="translate(0 -274.929)" fill="#e90075"/>
        <path id="Path_21002" data-name="Path 21002" d="M76.142,382.272h.234a.032.032,0,0,0,.007-.031h-.247a.057.057,0,0,0,.006.032" transform="translate(-72.158 -362.272)" fill="#e90075"/>
        <path id="Path_21003" data-name="Path 21003" d="M69.345,323.829q-.934.928-1.861,1.863a.577.577,0,0,0,.262,1,.163.163,0,0,1,.247,0,.562.562,0,0,0,.317-.177c.621-.62,1.244-1.239,1.861-1.863a.584.584,0,0,0,.027-.852.591.591,0,0,0-.854.025" transform="translate(-63.768 -306.727)" fill="#e90075"/>
        <path id="Path_21004" data-name="Path 21004" d="M76.141,381.225h.247a.163.163,0,0,0-.247,0" transform="translate(-72.163 -361.257)" fill="#e90075"/>
        <path id="Path_21005" data-name="Path 21005" d="M1.59,259.372q.93-.918,1.849-1.848a.6.6,0,0,0,.038-.868.589.589,0,0,0-.866.041q-.919.915-1.835,1.834a.593.593,0,0,0-.191.331v.247a.577.577,0,0,0,1,.262" transform="translate(-0.553 -243.087)" fill="#e90075"/>
        <path id="Path_21006" data-name="Path 21006" d="M209.136,64.555a2.927,2.927,0,1,0,2.927,2.93,2.927,2.927,0,0,0-2.927-2.93m0,4.683a1.755,1.755,0,1,1,0-3.511,1.755,1.755,0,0,1,0,3.511" transform="translate(-195.434 -61.183)" fill="#e90075"/>
      </g>
    </g>
  </g>
</svg>
